#!OML:ASF G:\JayActor3\Patient Classification 1\Patient 1\Session 2\male.ASF
:FULLY-SPECIFIED
:DEGREES
2000
root -32.2936 16.8717 -5.99778 1607.21 93.5694 157.105
lowerback 1.42753 -0.808994 -1.27265
upperback 5.6339 -0.907406 -0.72212
thorax 5.0252 -0.438688 -0.0570791
lowerneck -1.17623 -2.70148 -1.55447
upperneck 18.4413 -4.48744 8.66099
head 5.979 -1.50296 2.77796
rclavicle -7.7526e-015 -5.96354e-015
rhumerus -21.6046 -0.0695357 -84.4539
rradius 102.441
rwrist -4.36951
rhand -24.8841 22.48
rfingers 7.12502
rthumb 1.62346 -7.49357
lclavicle -7.7526e-015 -5.96354e-015
lhumerus -8.29526 -8.60068 86.8965
lradius 82.7096
lwrist 26.407
lhand -13.2368 5.61302
lfingers 7.12502
lthumb 12.8649 35.1965
rfemur -18.2357 -2.9918 25.9436
rtibia 43.1191
rfoot -19.4361 -3.58515
rtoes 9.3641
lfemur -20.8277 10.9707 -17.7632
ltibia 59.6988
lfoot -5.6589 8.14703
ltoes -21.4328
2001
root -32.147 16.9687 -5.99496 1601.41 93.4224 151.104
lowerback 1.33896 -0.661879 -0.775982
upperback 5.32579 -0.732336 -0.759244
thorax 4.74169 -0.332821 -0.366546
lowerneck -1.99762 -2.73537 -1.57831
upperneck 17.3727 -4.52036 8.57203
head 5.78642 -1.56147 2.72968
rclavicle 6.95746e-015 1.27222e-014
rhumerus -20.6455 2.00871 -83.5695
rradius 99.9198
rwrist -5.07801
rhand -24.112 21.6029
rfingers 7.12502
rthumb 2.36921 -8.3637
lclavicle 6.95746e-015 1.27222e-014
lhumerus -8.39391 -10.3355 88.172
lradius 81.0333
lwrist 25.1026
lhand -12.5249 5.57107
lfingers 7.12502
lthumb 13.5511 35.1101
rfemur -17.4236 -2.89581 26.0458
rtibia 41.9562
rfoot -17.8945 -3.58909
rtoes 9.36849
lfemur -22.9523 11.0388 -17.5327
ltibia 61.3777
lfoot -5.94985 6.5769
ltoes -21.1564
2002
root -31.9984 17.0637 -5.99044 1598.5 93.3771 148.03
lowerback 1.34771 -0.483621 -0.488855
upperback 5.01007 -0.510821 -0.822071
thorax 4.40229 -0.213639 -0.583847
lowerneck -2.84057 -2.7572 -1.67295
upperneck 16.3572 -4.52085 8.42258
head 5.61421 -1.6091 2.67788
rclavicle -4.96962e-015 -1.35174e-014
rhumerus -19.7269 4.40513 -82.537
rradius 97.6355
rwrist -6.00708
rhand -23.4776 20.7995
rfingers 7.12502
rthumb 2.98187 -9.15937
lclavicle -4.96962e-015 -1.35174e-014
lhumerus -8.54181 -12.1602 89.292
lradius 79.6376
lwrist 23.8155
lhand -11.643 5.58044
lfingers 7.12502
lthumb 14.401 35.0608
rfemur -16.6379 -2.69112 26.0196
rtibia 40.8972
rfoot -16.4139 -3.75102
rtoes 9.42481
lfemur -24.8908 11.1762 -17.5084
ltibia 62.5939
lfoot -6.38359 5.40045
ltoes -20.9788
2003
root -31.8482 17.1563 -5.98439 1598.69 93.4156 148.096
lowerback 1.46057 -0.27404 -0.376212
upperback 4.67405 -0.243862 -0.921419
thorax 3.98821 -0.078863 -0.740823
lowerneck -3.68773 -2.76292 -1.81291
upperneck 15.4103 -4.48462 8.2109
head 5.46279 -1.64094 2.61836
rclavicle -4.17448e-015 -1.19271e-014
rhumerus -18.8569 7.02811 -81.431
rradius 95.5324
rwrist -7.00279
rhand -23.0341 20.1635
rfingers 7.12502
rthumb 3.41013 -9.78893
lclavicle -4.17448e-015 -1.19271e-014
lhumerus -8.74576 -14.0485 90.2568
lradius 78.4875
lwrist 22.7391
lhand -10.6992 5.6348
lfingers 7.12502
lthumb 15.3102 35.0481
rfemur -15.8837 -2.38793 25.8812
rtibia 39.9413
rfoot -15.013 -4.06948
rtoes 9.56031
lfemur -26.6374 11.3778 -17.6683
ltibia 63.3672
lfoot -6.92171 4.67385
ltoes -20.8378
2004
root -31.6975 17.2466 -5.97682 1601.15 93.5043 150.447
lowerback 1.6725 -0.0508306 -0.376655
upperback 4.31911 0.0431805 -1.06852
thorax 3.50237 0.0625793 -0.885534
lowerneck -4.54715 -2.75035 -1.96112
upperneck 14.539 -4.41279 7.94038
head 5.33467 -1.65425 2.54589
rclavicle 0 1.11319e-014
rhumerus -18.03 9.80229 -80.3207
rradius 93.5746
rwrist -7.92025
rhand -22.8302 19.7164
rfingers 7.12502
rthumb 3.6071 -10.2328
lclavicle 0 1.11319e-014
lhumerus -8.9951 -15.9826 91.0524
lradius 77.5518
lwrist 21.9865
lhand -9.74805 5.78148
lfingers 7.12502
lthumb 16.2263 35.1224
rfemur -15.1578 -2.01501 25.665
rtibia 39.0716
rfoot -13.7233 -4.53161
rtoes 10.0477
lfemur -28.2179 11.5972 -17.9665
ltibia 63.7292
lfoot -7.50691 4.39221
ltoes -20.7413
2005
root -31.5462 17.3342 -5.96879 1605.01 93.657 154.213
lowerback 1.94766 0.18139 -0.416476
upperback 3.9519 0.342605 -1.27456
thorax 2.9718 0.210188 -1.07232
lowerneck -5.41907 -2.71657 -2.08317
upperneck 13.7357 -4.30557 7.61731
head 5.22658 -1.64713 2.45671
rclavicle 1.98785e-015 7.95139e-015
rhumerus -17.223 12.6569 -79.2547
rradius 91.7331
rwrist -8.67245
rhand -22.8575 19.4447
rfingers 7.12502
rthumb 3.58075 -10.5049
lclavicle 1.98785e-015 7.95139e-015
lhumerus -9.27057 -17.9631 91.6657
lradius 76.8058
lwrist 21.6023
lhand -8.89097 6.00496
lfingers 7.12502
lthumb 17.0514 35.2766
rfemur -14.4619 -1.59895 25.4004
rtibia 38.2619
rfoot -12.5327 -5.11928
rtoes 10.9163
lfemur -29.6571 11.8298 -18.3612
ltibia 63.7162
lfoot -8.11614 4.47659
ltoes -20.6757
2006
root -31.3946 17.4197 -5.96119 1609.19 93.8473 158.287
lowerback 2.25269 0.407431 -0.431291
upperback 3.57366 0.633194 -1.53824
thorax 2.41735 0.355021 -1.33678
lowerneck -6.28336 -2.66539 -2.16058
upperneck 12.9799 -4.17073 7.24776
head 5.12872 -1.62335 2.34939
rclavicle 2.18663e-015 -4.77083e-015
rhumerus -16.4336 15.5403 -78.2482
rradius 90.0122
rwrist -9.24096
rhand -23.0801 19.3003
rfingers 7.12502
rthumb 3.36577 -10.6529
lclavicle 2.18663e-015 -4.77083e-015
lhumerus -9.55672 -19.9944 92.1042
lradius 76.222
lwrist 21.5777
lhand -8.19237 6.28046
lfingers 7.12502
lthumb 17.7237 35.4927
rfemur -13.8062 -1.19414 25.1213
rtibia 37.4815
rfoot -11.4241 -5.83878
rtoes 11.9947
lfemur -30.9926 12.0262 -18.8106
ltibia 63.3622
lfoot -8.72681 4.82236
ltoes -20.6481
